<svg xmlns="http://www.w3.org/2000/svg" xmlns:xlink="http://www.w3.org/1999/xlink" width="1040" height="213.67999999999998"><rect width="1040" height="213.67999999999998" rx="0" ry="0" class="a"></rect><svg height="173.67999999999998" viewBox="0 0 100 17.368" width="1000" x="20" xmlns="http://www.w3.org/2000/svg" xmlns:xlink="http://www.w3.org/1999/xlink" y="20"><style>.a{fill:rgb(40,45,53)}.b{font-family:'Fira Code',Monaco,Consolas,Menlo,'Bitstream Vera Sans Mono','Powerline Symbols',monospace}.c{fill:transparent}.d{fill:rgb(255,135,255);white-space:pre}.e{fill:rgb(185,192,203);font-weight:bold;white-space:pre}.f{fill:rgb(185,192,203);white-space:pre}.g{fill:rgb(210,144,228);white-space:pre}.h{fill:rgb(232,131,136);font-weight:bold;white-space:pre}</style><g font-family="&#x27;Fira Code&#x27;,Monaco,Consolas,Menlo,&#x27;Bitstream Vera Sans Mono&#x27;,&#x27;Powerline Symbols&#x27;,monospace" font-size="1.67" class="b"><defs><symbol id="a"><rect height="9" width="100" x="0" y="0" class="c"></rect></symbol></defs><rect height="17.368" width="100" class="a"></rect><svg x="0" y="0" width="100"><svg x="0"><use xlink:href="#a"></use><text x="0" y="1.67" class="d">haldensify</text><text x="11.021999999999998" y="1.67" class="d">v0.1.0:</text><text x="19.037999999999997" y="1.67" class="d">Highly</text><text x="26.052" y="1.67" class="d">Adaptive</text><text x="35.06999999999999" y="1.67" class="d">Lasso</text><text x="41.082" y="1.67" class="d">Conditional</text><text x="53.105999999999995" y="1.67" class="d">Density</text><text x="61.12199999999999" y="1.67" class="d">Estimation</text><text x="2.004" y="3.8409999999999997" class="e">HAL</text><text x="6.012" y="3.8409999999999997" class="e">Conditional</text><text x="18.035999999999998" y="3.8409999999999997" class="e">Density</text><text x="26.052" y="3.8409999999999997" class="e">Estimation</text><text x="4.008" y="6.012" class="e">Breakpoints</text><text x="16.032" y="6.012" class="e">in</text><text x="19.037999999999997" y="6.012" class="e">A</text><text x="20.04" y="6.012" class="f">:</text><text x="22.043999999999997" y="6.012" class="g">-4.118,</text><text x="30.059999999999995" y="6.012" class="g">-2.462,</text><text x="38.07599999999999" y="6.012" class="g">-0.805,</text><text x="46.09199999999999" y="6.012" class="g">0.851,</text><text x="53.105999999999995" y="6.012" class="g">and</text><text x="57.114" y="6.012" class="g">2.507</text><text x="4.008" y="8.183" class="e">CV-selected</text><text x="16.032" y="8.183" class="e">lambda</text><text x="22.043999999999997" y="8.183" class="f">:</text><text x="24.048" y="8.183" class="f">0.0021</text><text x="4.008" y="10.354" class="e">HAL</text><text x="8.016" y="10.354" class="e">fit</text><text x="12.024" y="10.354" class="e">summary</text><text x="19.037999999999997" y="10.354" class="f">:</text><text x="0" y="12.525" class="h">Warning</text><text x="8.016" y="12.525" class="h">message:</text><text x="0" y="14.696" class="d">In</text><text x="3.006" y="14.696" class="d">summary.hal9001(x$hal_fit)</text><text x="30.059999999999995" y="14.696" class="d">:</text><text x="32.064" y="14.696" class="d">Coefficients</text><text x="45.089999999999996" y="14.696" class="d">for</text><text x="49.098" y="14.696" class="d">many</text><text x="54.108" y="14.696" class="d">lamdba</text><text x="61.12199999999999" y="14.696" class="d">exist</text><text x="67.134" y="14.696" class="d">--</text><text x="0" y="16.866999999999997" class="d">Summarizing</text><text x="12.024" y="16.866999999999997" class="d">coefficients</text><text x="25.05" y="16.866999999999997" class="d">corresponding</text><text x="39.077999999999996" y="16.866999999999997" class="d">to</text><text x="42.083999999999996" y="16.866999999999997" class="d">minimum</text><text x="50.1" y="16.866999999999997" class="d">lambda.</text></svg></svg></g></svg></svg>